<svg width="46" height="63" viewBox="0 0 46 63" fill="none" xmlns="http://www.w3.org/2000/svg">
<path d="M44.4547 27.8817C44.4257 27.5939 44.3957 27.289 44.3613 26.999C44.3302 26.736 44.1447 26.5105 44.1329 26.2484C44.1179 25.8973 44.3892 25.7233 44.3174 25.2777C44.2981 25.1617 44.2133 25.0683 44.1833 24.947C44.0653 24.4734 43.986 24.2715 43.9978 23.7904C44.0128 23.1698 43.601 22.9829 43.5387 22.664C43.4905 22.4149 43.5656 22.1636 43.4594 21.8178C43.3285 21.3915 42.8524 20.8546 42.7644 20.5174C42.6443 20.0546 42.6647 19.7904 42.3269 19.377C42.1274 19.1333 41.7413 18.9528 41.6115 18.7005C41.5 18.4836 41.485 18.1743 41.4002 17.937C41.2962 17.6449 40.583 16.5711 40.3567 16.381C40.2259 16.2704 40.0532 16.2253 39.917 16.1244C39.5952 15.8871 39.3668 15.5864 39 15.3706C38.6836 15.1837 37.9586 14.9378 37.7356 14.7327C37.5929 14.6017 37.6423 14.446 37.52 14.3451C37.2208 14.1002 36.0121 13.9381 35.5895 13.8629C32.5941 13.3314 29.5804 13.6825 26.7909 14.8755C26.156 15.1472 25.3538 15.5037 24.8197 15.9204C23.8373 16.6871 22.8667 17.5247 21.8232 18.213C21.5947 18.3633 20.7657 18.8401 20.5405 18.882C20.1898 18.9475 19.8026 18.7102 19.2943 18.9314C19.1731 18.984 19.1699 19.1461 18.9768 19.1225C18.8546 19.1075 18.7269 18.8648 18.4652 18.8412C18.1907 18.8165 18.1017 18.9775 17.9076 18.9861C17.6963 18.9947 17.5901 18.8143 17.3563 18.8444C17.2137 18.8626 17.0528 19.0259 16.9337 19.0259C16.8179 19.0259 16.6796 18.853 16.5123 18.8455C16.3471 18.839 16.242 18.969 16.0178 18.926C15.6339 18.853 15.1223 18.5094 14.7566 18.5673C14.6397 18.5856 14.5593 18.6758 14.4638 18.6951C14.1185 18.7639 14.0799 18.3966 13.8354 18.2302C13.7496 18.1722 13.5029 18.0637 13.4031 18.0551C13.2723 18.0444 13.1425 18.1185 13.0482 18.0927C12.9774 18.0745 12.8455 17.8908 12.7521 17.8286C12.3328 17.5472 11.8673 17.4323 11.4823 17.0565C11.3547 16.9319 11.24 16.7257 11.1155 16.5883C11.0287 16.4927 10.8442 16.4132 10.7863 16.3145C10.7155 16.1942 10.7563 16.0771 10.6512 15.9397C10.5686 15.8334 10.3444 15.7421 10.294 15.6712C10.2157 15.5606 10.2576 15.3695 10.2222 15.2557C10.0945 14.8465 9.85645 14.6189 9.72025 14.3193C9.26873 13.3303 9.70094 13.0973 9.72025 12.2672C9.72346 12.134 9.61407 12.0428 9.62694 11.8559C9.64946 11.5316 9.9519 11.5069 10.1192 11.3233C10.2812 11.145 10.3691 10.8122 10.6329 10.6769C10.8002 10.5909 10.9611 10.6446 11.1477 10.5888C11.2528 10.5566 11.9338 10.185 12.0572 10.1056C12.158 10.0412 12.3167 9.81994 12.4293 9.84249L12.9023 10.1571C13.3549 10.1024 13.8557 10.242 14.2922 10.2076C14.4477 10.1958 14.5786 10.1303 14.7137 10.1174C14.8049 10.1088 15.6017 10.3118 15.7165 10.3579C15.9117 10.4363 16.0961 10.7091 16.2945 10.7542C16.5455 10.81 16.9069 10.7542 17.2008 10.8218C17.7091 10.9389 18.1639 11.1644 18.5939 11.4232C18.6797 11.4747 19.4133 11.8516 19.4605 11.8591C19.6182 11.8849 19.749 11.799 19.9024 11.785C20.5534 11.7292 20.5115 12.0718 20.9427 12.1813C22.3508 12.5399 23.6571 12.6688 25.0964 12.759C25.8107 12.803 26.5185 12.8471 27.2338 12.8943C27.3111 12.8997 27.3851 12.8492 27.4591 12.8535C27.6242 12.8632 27.6714 13.0178 27.7636 13.0597C27.9653 13.1531 28.3621 12.9877 28.5777 12.948C29.2801 12.8202 30.0512 12.6463 30.7526 12.5732C31.1516 12.5314 31.6964 12.6452 32.1458 12.6216C32.4214 12.6065 32.327 12.5754 32.6584 12.6162C33.0992 12.671 33.0274 12.4519 33.2794 12.4057C33.4017 12.3832 33.4907 12.4497 33.6172 12.4261C33.7416 12.4036 34.0001 12.2285 34.1621 12.1781C34.5063 12.0696 34.7551 11.9966 35.0898 11.8538C35.6153 11.6293 35.7397 11.1504 36.1129 10.882C36.499 10.6049 37.3216 10.3612 37.6659 10.0218C37.7592 9.92947 37.7699 9.72222 37.8375 9.65994C37.9093 9.59336 38.1302 9.57511 38.245 9.44088C38.3276 9.34316 38.3394 9.20893 38.4091 9.09511C38.5099 8.93296 38.6922 8.84168 38.7566 8.74611C38.8145 8.65913 38.8059 8.54423 38.8713 8.44329C38.955 8.31443 39.1534 8.24893 39.2478 8.14691C39.4558 7.92248 39.4215 7.67765 39.5212 7.46826C39.5577 7.39094 39.6918 7.31792 39.7475 7.23094C39.8837 7.02262 40.2162 6.42664 40.2741 6.22584C40.3084 6.10879 40.2655 5.97456 40.3042 5.83818C40.3546 5.66315 40.7299 5.10046 40.8286 4.87711C41.0216 4.44006 40.9862 4.15657 41.0195 3.74315C40.8769 3.62395 40.8715 3.37697 41.0034 3.24811C40.9852 2.98073 40.9659 2.71442 40.9616 2.44704C40.8211 2.37831 40.7685 2.20865 40.8061 2.06475C40.7868 2.02717 40.775 1.98529 40.7696 1.94234C40.5959 1.67603 40.4682 1.36891 40.332 1.10153C40.2988 1.03495 40.2602 0.974817 40.2205 0.917904C39.9449 0.811595 39.665 0.717098 39.3775 0.638708C39.3143 0.621527 39.266 0.589313 39.2285 0.548507C39.0601 0.573205 38.8971 0.607568 38.7587 0.627971C38.2793 0.69777 37.7946 0.749314 37.3806 0.484078C37.3774 0.484078 37.3741 0.4873 37.3709 0.4873C37.0224 0.577501 36.7714 0.354144 36.2813 0.557098C35.6796 0.806226 35.1133 0.88569 34.5042 1.09938C33.4392 1.47307 32.5008 2.12489 31.5474 2.68865C30.639 3.22556 29.6566 3.63147 28.7385 4.14905C28.4693 4.30046 28.1358 4.59147 27.8387 4.73322C27.3154 4.98342 27.1266 4.63228 26.7233 4.64731C26.5453 4.65375 26.2461 4.84704 26.1228 4.81053C25.9083 4.61832 25.8107 4.35738 25.4685 4.39926C25.3441 4.41429 25.2133 4.56033 25.1028 4.53134C24.9913 4.50234 24.8175 4.18986 24.6556 4.14046C24.5312 4.1018 23.6914 3.94073 23.5617 3.93321C23.4029 3.92462 23.2592 3.99872 23.1198 3.96221C23.0051 3.93321 22.8935 3.62717 22.6254 3.57241C22.1546 3.47791 21.6237 3.49939 21.1615 3.32006C20.1834 2.93992 18.9189 2.74878 17.8625 2.58341C17.692 2.55657 17.4185 2.51898 17.2651 2.48462C17.1204 2.4524 16.9091 2.23227 16.7707 2.18932C16.597 2.13455 16.4694 2.24516 16.2924 2.20757C16.124 2.17106 16.0254 1.94448 15.7605 1.90153C15.4945 1.85965 15.3787 1.99281 15.1706 1.98636C15.102 1.98422 14.3255 1.82422 14.2879 1.79844C14.2225 1.75549 14.1764 1.67173 14.0949 1.62019C13.7849 1.42475 13.726 1.58368 13.4482 1.6073C13.1651 1.63093 12.6717 1.70932 12.4325 1.70824C12.2191 1.70824 12.0561 1.55039 11.8759 1.56113C11.7215 1.57079 11.6067 1.74046 11.4555 1.75012C11.1381 1.76945 11.0351 1.49777 10.5418 1.71576C10.1675 1.88113 10.0238 1.90475 9.64839 2.02824C9.40172 2.10878 9.01134 2.39012 8.79362 2.42985C8.58235 2.46851 8.36141 2.35361 8.09544 2.42341C8.0504 2.43522 7.41763 2.81428 7.34256 2.8669C7.18705 2.97751 6.81597 3.38449 6.69371 3.43388C6.53284 3.49831 6.38591 3.44677 6.22932 3.47899C5.92581 3.54127 5.76816 3.872 5.5483 4.05133C5.43891 4.14046 5.27911 4.19952 5.15363 4.30583C4.54768 4.82342 4.11225 5.52892 3.52882 6.06906C3.48056 6.0057 3.53847 5.95094 3.41299 5.97671L3.40656 6.25161C3.21029 6.22262 3.29395 6.36221 3.23067 6.45456C2.75663 7.14181 1.53186 8.45618 1.29484 9.17135C0.662081 11.0774 0.318888 13.4817 0.63527 15.4683C0.73501 16.0975 0.932346 17.2616 1.24122 17.7867C1.3785 18.0208 1.71097 18.315 1.88471 18.5362C1.98981 18.6704 2.20002 18.9153 2.27616 19.0259C2.36947 19.1601 2.37269 19.3437 2.46599 19.4865C2.73733 19.9053 3.37653 20.3027 3.71329 20.6989C3.79479 20.7955 3.81195 20.9308 3.92349 21.0457C4.07686 21.2057 4.23558 21.1853 4.3675 21.2981C4.50907 21.4194 4.56376 21.6814 4.68924 21.8125C4.82223 21.9531 4.9949 21.937 5.11073 22.0412C5.19974 22.1217 5.2094 22.2527 5.31986 22.3429C5.42925 22.4321 5.59442 22.4449 5.70595 22.5137C6.21431 22.8294 6.4835 23.0957 7.08194 23.2718C7.15487 23.2933 7.20635 23.377 7.29322 23.3899C7.48841 23.4178 7.64071 23.231 7.8123 23.1687C8.0461 23.0839 8.44828 23.0882 8.64669 22.9819C8.77861 22.911 8.7829 22.7445 8.96951 22.7016C9.48537 22.5835 10.0441 22.6039 10.5718 22.4954C10.7316 22.4621 10.9086 22.3451 11.049 22.3236C11.4877 22.2559 12.0808 22.4181 12.5301 22.4181C12.9237 22.4181 13.3366 22.2463 13.7378 22.2731C14.0187 22.2914 14.3351 22.4181 14.6226 22.4546C15.9975 22.6286 17.263 22.8723 18.521 23.5198C18.8224 23.6755 19.1892 24.0353 19.4766 24.1427C19.6418 24.2049 19.7823 24.148 19.9453 24.2307C20.1212 24.3209 20.4504 24.6441 20.6553 24.7741C20.8579 24.9019 21.1025 24.9985 21.3159 25.1349C21.4843 25.2423 22.3004 25.8629 22.4034 25.8436C22.5203 25.7899 22.635 25.5676 22.7444 25.5343C22.8978 25.4882 23.0329 25.5956 23.1874 25.5644C23.3043 25.5408 23.3686 25.4205 23.4662 25.3765C23.9306 25.1649 24.3274 25.0962 24.7682 24.7762C24.8583 24.7107 24.9012 24.5797 25.0331 24.5303C25.328 24.4197 25.7592 24.4219 26.0069 24.3445C26.171 24.293 26.3405 23.9837 26.4552 23.9537C26.5689 23.9236 26.6794 24.0278 26.8413 23.9741C26.9679 23.9322 27.0236 23.7453 27.177 23.6594C27.2607 23.6122 27.6135 23.5059 27.7079 23.4908C27.8312 23.4704 27.9149 23.6079 28.1025 23.5682C28.2763 23.5317 28.5047 23.2396 28.6345 23.2127C28.7771 23.1837 28.9605 23.3964 29.1343 23.3942C29.2791 23.3921 29.3498 23.26 29.47 23.217C29.5043 23.2052 29.8507 23.115 29.8796 23.1118C30.0695 23.0914 30.1821 23.2632 30.3848 23.2546C30.5564 23.2471 30.7333 23.0764 30.9414 23.0742C31.2621 23.0721 31.7522 23.1461 32.0997 23.1601C32.5137 23.1773 32.9062 23.1998 33.303 23.2084C33.6816 23.217 34.1363 23.7915 34.4473 23.9676C34.575 24.0396 34.724 24.0278 34.8592 24.1126C35.3504 24.4186 36.2888 26.1099 36.3424 26.6705C36.3617 26.8648 36.2534 26.9743 36.2491 27.1301C36.2277 27.9451 36.5591 28.5615 36.3682 29.4742C35.7343 32.5089 32.8075 33.5397 30.0169 33.6085C28.0532 33.6568 24.9752 33.02 23.0823 32.4208C21.0682 31.783 19.2439 31.1236 17.1171 30.8251C16.7718 30.7768 16.1487 30.6855 15.8237 30.7263C15.7605 30.7349 15.6789 30.7607 15.7551 30.8187C15.9696 30.78 16.1337 30.9829 16.301 31.0388C16.6453 31.1537 17.2008 31.2525 17.5279 31.4232C17.5965 31.4597 17.6587 31.6391 17.8089 31.711C18.0223 31.8141 18.3687 31.8721 18.595 31.9923C18.7377 32.0675 18.8642 32.2243 18.9672 32.2694C19.0723 32.3156 19.1849 32.2984 19.2975 32.3564C19.483 32.453 19.4927 32.7258 19.7565 32.8246C19.956 32.8997 20.0879 32.7859 20.223 32.8654C20.3442 32.9362 20.4075 33.1177 20.5019 33.2165C20.8065 33.5354 21.302 34.0724 21.6473 34.3215C21.7653 34.4063 21.9219 34.4407 22.0388 34.533C22.1878 34.6522 22.2146 34.8154 22.3155 34.9056C22.4098 34.9905 22.5546 34.9958 22.6629 35.0689C22.8056 35.1644 22.8613 35.3448 22.9911 35.4361C23.1659 35.5585 23.6807 35.6659 23.9038 35.7754C24.0282 35.8367 24.0421 35.9773 24.1462 35.9999C24.2599 36.0256 24.3446 35.9677 24.4508 35.9677C24.7661 35.9677 25.0042 36.3843 25.2401 36.5744C25.3388 36.6538 25.4643 36.7279 25.5715 36.7999C26.1892 37.209 26.7577 37.6493 27.4762 37.9102C27.7229 37.9993 28.331 38.081 28.494 38.2603C28.553 38.3247 28.5648 38.4922 28.6795 38.518C28.7557 38.5352 28.8586 38.4632 28.9841 38.4858C29.2909 38.5416 29.9955 38.9959 30.2035 39.0334C30.477 39.0828 30.8867 39.0452 31.172 39.0861C31.4133 39.1204 31.7029 39.2643 31.9688 39.2632C32.1812 39.2632 32.5137 39.129 32.7539 39.1365C32.8901 39.1408 33.0413 39.26 33.1732 39.2654C34.7895 39.332 36.2652 39.0528 37.7463 38.4643C38.3286 38.2334 38.8509 37.9113 39.2982 37.441C39.4065 37.3271 39.5127 37.0898 39.6188 36.9964C39.7282 36.9008 39.9577 36.8525 40.0575 36.7397C40.1454 36.642 40.1712 36.4541 40.2484 36.3274C40.4586 35.9816 40.6913 35.9773 40.938 35.7647C40.9873 35.7218 41.693 34.9314 41.7252 34.8809C41.8378 34.7048 41.7949 34.4589 41.9129 34.3258C42.0426 34.1808 42.3279 34.183 42.4877 33.9263C42.6111 33.7287 42.5124 33.5773 42.5832 33.4184C42.6293 33.3142 42.8213 33.2305 42.8845 33.1499C43.0047 32.9996 42.9961 32.8149 43.0754 32.6581C43.1612 32.4885 43.3747 32.3585 43.4776 32.1781C43.7136 31.7658 43.5677 31.5327 43.6363 31.1301C43.6857 30.8401 43.9184 30.5642 43.9495 30.1905C43.9742 29.8952 43.8777 29.7072 43.8584 29.4474C43.8112 28.7945 44.5211 28.525 44.4557 27.8742L44.4547 27.8817ZM35.4758 4.65805C36.366 4.65805 36.3649 6.04114 35.4758 6.04114C34.5868 6.04114 34.5868 4.65805 35.4758 4.65805Z" fill="#FF4343"/>
<path d="M4.20664 5.10047C4.26134 5.15846 3.71008 5.7845 3.60498 5.84356C3.62107 5.65779 3.8613 5.37322 3.99751 5.23899C4.05649 5.17993 4.11226 5.08866 4.20664 5.10047Z" fill="#FF4343"/>
<path d="M1.23263 35.1494C1.26159 35.4372 1.29162 35.7422 1.32594 36.0321C1.35704 36.2952 1.54258 36.5207 1.55437 36.7827C1.56939 37.1338 1.29805 37.3078 1.36991 37.7534C1.38921 37.8694 1.47394 37.9628 1.50397 38.0842C1.62194 38.5577 1.7013 38.7596 1.68951 39.2407C1.67449 39.8614 2.08632 40.0482 2.14853 40.3671C2.19679 40.6163 2.12172 40.8675 2.22789 41.2133C2.35873 41.6396 2.83492 42.1765 2.92286 42.5137C3.04298 42.9765 3.0226 43.2407 3.36043 43.6541C3.55991 43.8979 3.946 44.0783 4.07577 44.3306C4.18731 44.5475 4.20233 44.8568 4.28705 45.0941C4.39108 45.3862 5.10428 46.46 5.33058 46.6501C5.46142 46.7607 5.63409 46.8058 5.77029 46.9067C6.09204 47.1441 6.32047 47.4447 6.68726 47.6606C7.00364 47.8474 7.72864 48.0933 7.95172 48.2984C8.09436 48.4294 8.04502 48.5851 8.16728 48.6861C8.46651 48.9309 9.67519 49.0931 10.0977 49.1682C13.0932 49.6998 16.1069 49.3486 18.8964 48.1556C19.5313 47.8839 20.3335 47.5274 20.8676 47.1108C21.85 46.3441 22.8206 45.5065 23.8641 44.8182C24.0925 44.6678 24.9216 44.191 25.1468 44.1492C25.4975 44.0837 25.8847 44.321 26.393 44.0998C26.5142 44.0471 26.5174 43.885 26.7105 43.9086C26.8327 43.9237 26.9604 44.1663 27.222 44.19C27.4966 44.2147 27.5856 44.0536 27.7797 44.045C27.991 44.0364 28.0972 44.2168 28.331 44.1867C28.4736 44.1685 28.6345 44.0053 28.7535 44.0053C28.8694 44.0053 29.0077 44.1781 29.175 44.1857C29.3402 44.1921 29.4453 44.0622 29.6694 44.1051C30.0534 44.1781 30.565 44.5218 30.9307 44.4638C31.0476 44.4455 31.128 44.3553 31.2235 44.336C31.5688 44.2673 31.6074 44.6345 31.8519 44.801C31.9377 44.859 32.1844 44.9674 32.2841 44.976C32.415 44.9867 32.5448 44.9126 32.6391 44.9384C32.7099 44.9567 32.8418 45.1403 32.9351 45.2026C33.3545 45.4839 33.8199 45.5988 34.205 45.9747C34.3326 46.0992 34.4473 46.3054 34.5717 46.4429C34.6586 46.5384 34.8431 46.6179 34.901 46.7167C34.9718 46.8369 34.931 46.954 35.0361 47.0914C35.1187 47.1978 35.3428 47.289 35.3933 47.3599C35.4715 47.4705 35.4297 47.6616 35.4651 47.7755C35.5927 48.1846 35.8308 48.4123 35.967 48.7119C36.4186 49.7008 35.9863 49.9339 35.967 50.7639C35.9638 50.8971 36.0732 50.9884 36.0603 51.1752C36.0378 51.4995 35.7354 51.5242 35.5681 51.7078C35.4061 51.8861 35.3182 52.219 35.0544 52.3543C34.887 52.4402 34.7262 52.3865 34.5396 52.4423C34.4345 52.4745 33.7534 52.8461 33.6301 52.9256C33.5293 52.99 33.3706 53.2112 33.2579 53.1886L32.785 52.874C32.3324 52.9288 31.8316 52.7892 31.3951 52.8235C31.2395 52.8354 31.1087 52.9009 30.9736 52.9137C30.8824 52.9223 30.0856 52.7194 29.9708 52.6732C29.7756 52.5948 29.5911 52.3221 29.3927 52.277C29.1418 52.2211 28.7803 52.277 28.4865 52.2093C27.9781 52.0923 27.5234 51.8668 27.0933 51.608C27.0075 51.5564 26.274 51.1795 26.2268 51.172C26.0691 51.1462 25.9383 51.2321 25.7849 51.2461C25.1339 51.3019 25.1757 50.9594 24.7446 50.8498C23.3364 50.4912 22.0302 50.3623 20.5909 50.2721C19.8766 50.2281 19.1688 50.1841 18.4534 50.1368C18.3762 50.1315 18.3022 50.1819 18.2282 50.1776C18.0631 50.168 18.0159 50.0133 17.9236 49.9715C17.722 49.878 17.3252 50.0434 17.1096 50.0831C16.4071 50.2109 15.636 50.3849 14.9346 50.4579C14.5357 50.4998 13.9909 50.386 13.5415 50.4096C13.2659 50.4246 13.3602 50.4557 13.0288 50.4149C12.588 50.3602 12.6599 50.5792 12.4079 50.6254C12.2856 50.648 12.1966 50.5814 12.07 50.605C11.9456 50.6276 11.6872 50.8026 11.5252 50.8531C11.181 50.9615 10.9321 51.0345 10.5975 51.1774C10.072 51.4018 9.9476 51.8807 9.57438 52.1492C9.18829 52.4262 8.36569 52.67 8.02143 53.0093C7.92812 53.1017 7.9174 53.3089 7.84983 53.3712C7.77797 53.4378 7.55704 53.456 7.44229 53.5903C7.35971 53.688 7.34791 53.8222 7.2782 53.936C7.17739 54.0982 6.99506 54.1895 6.93071 54.285C6.8728 54.372 6.88138 54.4869 6.81596 54.5878C6.73231 54.7167 6.5339 54.7822 6.43952 54.8842C6.23146 55.1086 6.26578 55.3535 6.16604 55.5629C6.12957 55.6402 5.99551 55.7132 5.93974 55.8002C5.80354 56.0085 5.47107 56.6045 5.41316 56.8053C5.37884 56.9223 5.42174 57.0566 5.38313 57.1929C5.33272 57.368 4.95735 57.9307 4.85869 58.154C4.66564 58.5911 4.70103 58.8746 4.66778 59.288C4.81042 59.4072 4.81579 59.6542 4.68387 59.783C4.7021 60.0504 4.72141 60.3167 4.7257 60.5841C4.86619 60.6528 4.91874 60.8225 4.88121 60.9664C4.90051 61.004 4.91231 61.0458 4.91767 61.0888C5.09141 61.3551 5.21904 61.6622 5.35524 61.9296C5.38849 61.9962 5.4271 62.0563 5.46678 62.1132C5.74241 62.2195 6.02233 62.314 6.30975 62.3924C6.37303 62.4096 6.42129 62.4418 6.45882 62.4826C6.6272 62.4579 6.79022 62.4236 6.92857 62.4032C7.40797 62.3334 7.89273 62.2818 8.30671 62.5471C8.30993 62.5471 8.31314 62.5438 8.31636 62.5438C8.66492 62.4536 8.91588 62.677 9.406 62.474C10.0077 62.2249 10.5739 62.1454 11.1831 61.9318C12.2481 61.5581 13.1865 60.9062 14.1399 60.3425C15.0483 59.8056 16.0307 59.3997 16.9488 58.8821C17.2179 58.7307 17.5515 58.4397 17.8486 58.2979C18.3719 58.0477 18.5607 58.3989 18.9639 58.3838C19.142 58.3774 19.4412 58.1841 19.5645 58.2206C19.779 58.4128 19.8766 58.6738 20.2187 58.6319C20.3432 58.6168 20.474 58.4708 20.5845 58.4998C20.696 58.5288 20.8697 58.8413 21.0317 58.8907C21.1561 58.9293 21.9958 59.0904 22.1256 59.0979C22.2843 59.1065 22.4281 59.0324 22.5675 59.0689C22.6822 59.0979 22.7938 59.404 23.0619 59.4587C23.5327 59.5532 24.0636 59.5317 24.5258 59.7111C25.5039 60.0912 26.7684 60.2823 27.8248 60.4477C27.9953 60.4746 28.2688 60.5122 28.4221 60.5465C28.5669 60.5787 28.7782 60.7989 28.9166 60.8418C29.0903 60.8966 29.2179 60.786 29.3949 60.8236C29.5633 60.8601 29.6619 61.0867 29.9268 61.1296C30.1928 61.1715 30.3086 61.0383 30.5167 61.0448C30.5853 61.0469 31.3618 61.2069 31.3993 61.2327C31.4648 61.2756 31.5109 61.3594 31.5924 61.4109C31.9023 61.6064 31.9613 61.4475 32.2391 61.4238C32.5222 61.4002 33.0156 61.3218 33.2547 61.3229C33.4682 61.3229 33.6312 61.4807 33.8113 61.47C33.9658 61.4603 34.0805 61.2907 34.2318 61.281C34.5492 61.2617 34.6522 61.5334 35.1455 61.3154C35.5198 61.15 35.6635 61.1264 36.0389 61.0029C36.2856 60.9224 36.6759 60.641 36.8937 60.6013C37.1049 60.5626 37.3259 60.6775 37.5918 60.6077C37.6369 60.5959 38.2696 60.2169 38.3447 60.1642C38.5002 60.0536 38.8713 59.6466 38.9936 59.5972C39.1544 59.5328 39.3014 59.5844 39.458 59.5522C39.7615 59.4899 39.9191 59.1591 40.139 58.9798C40.2484 58.8907 40.4082 58.8316 40.5337 58.7253C41.1396 58.2077 41.575 57.5022 42.1585 56.9621C42.2067 57.0254 42.1488 57.0802 42.2743 57.0544L42.2807 56.7795C42.477 56.8085 42.3933 56.6689 42.4566 56.5766C42.9306 55.8893 44.1554 54.575 44.3924 53.8598C45.0252 51.9537 45.3684 49.5494 45.052 47.5629C44.9523 46.9336 44.7549 45.7696 44.4461 45.2445C44.3088 45.0104 43.9763 44.7161 43.8026 44.4949C43.6975 44.3607 43.4873 44.1159 43.4111 44.0053C43.3178 43.871 43.3146 43.6874 43.2213 43.5446C42.95 43.1258 42.3108 42.7285 41.974 42.3322C41.8925 42.2356 41.8753 42.1003 41.7638 41.9854C41.6104 41.8254 41.4517 41.8458 41.3198 41.733C41.1782 41.6117 41.1235 41.3497 40.998 41.2187C40.8651 41.078 40.6924 41.0941 40.5766 40.99C40.4875 40.9094 40.4779 40.7784 40.3674 40.6882C40.258 40.5991 40.0929 40.5862 39.9813 40.5175C39.473 40.2018 39.2038 39.9355 38.6053 39.7593C38.5324 39.7379 38.4809 39.6541 38.3941 39.6412C38.1989 39.6133 38.0466 39.8002 37.875 39.8624C37.6412 39.9473 37.239 39.943 37.0406 40.0493C36.9087 40.1202 36.9044 40.2866 36.7178 40.3296C36.2019 40.4477 35.6431 40.4273 35.1155 40.5357C34.9557 40.569 34.7787 40.6861 34.6382 40.7075C34.1996 40.7752 33.6065 40.613 33.1571 40.613C32.7635 40.613 32.3506 40.7849 31.9495 40.758C31.6685 40.7398 31.3522 40.613 31.0647 40.5765C29.6898 40.4026 28.4243 40.1588 27.1663 39.5113C26.8649 39.3556 26.4981 38.9959 26.2107 38.8885C26.0455 38.8262 25.905 38.8831 25.742 38.8004C25.5661 38.7102 25.2369 38.387 25.032 38.2571C24.8293 38.1293 24.5848 38.0326 24.3714 37.8963C24.203 37.7889 23.3868 37.1682 23.2839 37.1875C23.167 37.2412 23.0522 37.4635 22.9428 37.4968C22.7895 37.543 22.6543 37.4356 22.4999 37.4667C22.383 37.4903 22.3187 37.6106 22.2211 37.6546C21.7567 37.8662 21.3599 37.9349 20.9191 38.2549C20.829 38.3204 20.7861 38.4514 20.6542 38.5008C20.3592 38.6114 19.9281 38.6093 19.6804 38.6866C19.5163 38.7381 19.3468 39.0474 19.2321 39.0775C19.1184 39.1075 19.0079 39.0034 18.846 39.0571C18.7194 39.0989 18.6636 39.2858 18.5103 39.3717C18.4266 39.4189 18.0738 39.5253 17.9794 39.5403C17.8561 39.5607 17.7724 39.4232 17.5847 39.463C17.411 39.4995 17.1826 39.7916 17.0528 39.8184C16.9101 39.8474 16.7267 39.6348 16.553 39.6369C16.4082 39.6391 16.3374 39.7712 16.2173 39.8141C16.183 39.8259 15.8366 39.9161 15.8076 39.9193C15.6178 39.9398 15.5052 39.7679 15.3025 39.7765C15.1309 39.784 14.9539 39.9548 14.7459 39.9569C14.4252 39.9591 13.9351 39.885 13.5876 39.871C13.1736 39.8538 12.7811 39.8313 12.3843 39.8227C12.0057 39.8141 11.551 39.2396 11.2399 39.0635C11.1123 38.9916 10.9632 39.0034 10.8281 38.9185C10.3369 38.6125 9.39849 36.9212 9.34487 36.3607C9.32556 36.1663 9.43388 36.0568 9.43817 35.9011C9.45962 35.086 9.12823 34.4697 9.31913 33.5569C9.95296 30.5223 12.8798 29.4914 15.6704 29.4227C17.6341 29.3744 20.7121 30.0111 22.605 30.6103C24.6191 31.2482 26.4434 31.9075 28.5701 32.206C28.9155 32.2544 29.5386 32.3456 29.8636 32.3048C29.9268 32.2962 30.0083 32.2705 29.9322 32.2125C29.7177 32.2511 29.5536 32.0482 29.3863 31.9923C29.042 31.8774 28.4865 31.7787 28.1594 31.6079C28.0907 31.5714 28.0285 31.3921 27.8784 31.3201C27.665 31.217 27.3186 31.1591 27.0923 31.0388C26.9496 30.9636 26.8231 30.8068 26.7201 30.7617C26.615 30.7156 26.5024 30.7327 26.3898 30.6748C26.2043 30.5781 26.1946 30.3054 25.9308 30.2066C25.7313 30.1314 25.5994 30.2452 25.4642 30.1658C25.3431 30.0949 25.2798 29.9134 25.1854 29.8146C24.8808 29.4957 24.3853 28.9588 24.04 28.7097C23.922 28.6248 23.7654 28.5905 23.6485 28.4981C23.4995 28.3789 23.4726 28.2157 23.3718 28.1255C23.2775 28.0407 23.1327 28.0353 23.0244 27.9623C22.8817 27.8667 22.8259 27.6863 22.6962 27.595C22.5214 27.4726 22.0066 27.3652 21.7835 27.2557C21.6591 27.1945 21.6451 27.0538 21.5411 27.0313C21.4274 27.0055 21.3427 27.0635 21.2365 27.0635C20.9212 27.0635 20.6831 26.6468 20.4472 26.4568C20.3485 26.3773 20.223 26.3032 20.1158 26.2313C19.498 25.8221 18.9296 25.3819 18.2111 25.1209C17.9644 25.0318 17.3563 24.9502 17.1933 24.7709C17.1343 24.7064 17.1225 24.5389 17.0077 24.5131C16.9316 24.496 16.8286 24.5679 16.7032 24.5454C16.3964 24.4895 15.6918 24.0353 15.4837 23.9977C15.2103 23.9483 14.8006 23.9859 14.5153 23.9451C14.274 23.9107 13.9844 23.7668 13.7184 23.7679C13.5061 23.7679 13.1736 23.9021 12.9334 23.8946C12.7972 23.8903 12.646 23.7711 12.514 23.7658C10.8978 23.6992 9.42209 23.9784 7.94099 24.5668C7.35863 24.7977 6.83634 25.1198 6.38911 25.5902C6.28079 25.704 6.17462 25.9413 6.06844 26.0348C5.95905 26.1303 5.72954 26.1786 5.6298 26.2914C5.54186 26.3891 5.51612 26.577 5.4389 26.7037C5.22869 27.0495 4.99596 27.0538 4.74929 27.2664C4.69996 27.3094 3.99426 28.0997 3.96209 28.1502C3.84948 28.3263 3.89238 28.5722 3.77441 28.7054C3.64464 28.8503 3.35936 28.8482 3.19956 29.1048C3.07622 29.3024 3.17489 29.4538 3.10411 29.6127C3.05799 29.7169 2.86602 29.8007 2.80274 29.8812C2.68262 30.0315 2.6912 30.2162 2.61184 30.373C2.52604 30.5427 2.31262 30.6726 2.20966 30.853C1.97371 31.2654 2.11957 31.4984 2.05093 31.9011C2.0016 32.191 1.76887 32.467 1.73777 32.8407C1.7131 33.136 1.80962 33.3239 1.82893 33.5838C1.87612 34.2366 1.16614 34.5062 1.23156 35.1569L1.23263 35.1494ZM10.2114 58.3731C9.32127 58.3731 9.32235 56.99 10.2114 56.99C11.1005 56.99 11.1005 58.3731 10.2114 58.3731Z" fill="#FF4343"/>
<path d="M41.4806 57.9296C41.4259 57.8716 41.9772 57.2456 42.0823 57.1865C42.0662 57.3723 41.826 57.6569 41.6897 57.7911C41.6308 57.8501 41.575 57.9414 41.4806 57.9296Z" fill="#FF4343"/>
</svg>
